<svg xmlns="http://www.w3.org/2000/svg" width="27" height="46" fill="none"><g clip-path="url(#A)"><path d="M5.888 46a5.93 5.93 0 0 1-3.413-1.083 5.86 5.86 0 0 1-1.82-2.065A5.69 5.69 0 0 1 0 40.208c-.003-1.08.343-2.136.99-3.015a5.29 5.29 0 0 1 2.611-1.886l5.364-1.758a1.71 1.71 0 0 0 .844-.613 1.64 1.64 0 0 0 .316-.978V6.162a3.24 3.24 0 0 1 .707-2.023c.46-.58 1.105-.993 1.833-1.175L24.098.074a2.38 2.38 0 0 1 1.049-.026 2.35 2.35 0 0 1 .953.426 2.27 2.27 0 0 1 .663.791A2.21 2.21 0 0 1 27 2.26V8.2a3.24 3.24 0 0 1-.71 2.029c-.462.58-1.11.993-1.842 1.174l-9.666 2.375c-.37.093-.696.304-.928.6a1.64 1.64 0 0 0-.354 1.028V40.25c.003 1.038-.33 2.05-.95 2.895s-1.498 1.477-2.508 1.81l-2.264.742a6.05 6.05 0 0 1-1.89.304h0z" fill="#fff" fill-opacity=".3"/></g><defs><clipPath id="A"><path fill="#fff" d="M0 0h27v46H0z"/></clipPath></defs></svg>