<svg xmlns="http://www.w3.org/2000/svg" width="18" height="18" fill="none"><path d="M7.84 2.065L4.596 5.4H.875C.392 5.4 0 5.803 0 6.3v5.4c0 .497.392.9.875.9h3.72l3.244 3.335c.548.564 1.494.168 1.494-.636V2.7c0-.805-.946-1.2-1.494-.636zM17.5 9c0-2.382-1.17-4.573-3.127-5.86-.408-.268-.95-.143-1.207.28s-.138.983.27 1.25c1.45.952 2.314 2.57 2.314 4.328s-.865 3.376-2.314 4.328c-.408.268-.53.828-.27 1.25.237.39.77.568 1.207.28C16.33 13.572 17.5 11.382 17.5 9zm-5.17-2.882c-.422-.237-.955-.08-1.19.354s-.08.982.345 1.223c.47.266.763.766.763 1.305s-.292 1.04-.763 1.305c-.423.24-.577.787-.344 1.223s.767.592 1.19.354C13.36 11.3 14 10.195 14 9a3.31 3.31 0 0 0-1.669-2.882z" fill="#fff"/></svg>