<svg width="39" height="39" viewBox="0 0 39 39" fill="none" xmlns="http://www.w3.org/2000/svg">
<path d="M19.5 0.75C9.15 0.75 0.75 9.15 0.75 19.5C0.75 29.85 9.15 38.25 19.5 38.25C29.85 38.25 38.25 29.85 38.25 19.5C38.25 9.15 29.85 0.75 19.5 0.75ZM19.5 6.375C22.6125 6.375 25.125 8.8875 25.125 12C25.125 15.1125 22.6125 17.625 19.5 17.625C16.3875 17.625 13.875 15.1125 13.875 12C13.875 8.8875 16.3875 6.375 19.5 6.375ZM19.5 33C17.2722 33 15.0791 32.4487 13.1161 31.3953C11.1532 30.3418 9.48146 28.819 8.25 26.9625C8.30625 23.2313 15.75 21.1875 19.5 21.1875C23.2313 21.1875 30.6938 23.2313 30.75 26.9625C29.5185 28.819 27.8468 30.3418 25.8839 31.3953C23.9209 32.4487 21.7278 33 19.5 33Z" fill="black"/>
</svg>
