<svg xmlns="http://www.w3.org/2000/svg" width="14" height="14" fill="none"><g clip-path="url(#A)"><path d="M5.294 13.998a1.39 1.39 0 0 1-1.111-.553L.6 8.724a1.39 1.39 0 0 1-.269-1.031 1.39 1.39 0 0 1 .539-.92 1.39 1.39 0 0 1 1.033-.27 1.39 1.39 0 0 1 .92.54l2.35 3.104 5.91-9.492c.196-.313.508-.536.868-.62s.74-.02 1.053.175c.653.406.854 1.266.446 1.92l-6.984 11.2a1.39 1.39 0 0 1-1.12.656c-.022.002-.042.002-.064.002z" fill="#fff"/></g><defs><clipPath id="A"><path fill="#fff" d="M0 0h14v14H0z"/></clipPath></defs></svg>