<svg xmlns="http://www.w3.org/2000/svg" width="34" height="36" fill="none"><g clip-path="url(#A)"><path fill-rule="evenodd" d="M10.244 33.5c0 .685-.356 1.342-.99 1.827s-1.493.757-2.39.757H3.487c-.896 0-1.755-.272-2.39-.757S.11 34.185.11 33.5v-31c0-.685.356-1.342.99-1.827s1.493-.757 2.39-.757h3.378c.896 0 1.755.272 2.39.757s.99 1.142.99 1.827v31zm23.647 0c0 .685-.356 1.342-.99 1.827s-1.493.757-2.39.757h-3.378c-.896 0-1.755-.272-2.39-.757s-.99-1.142-.99-1.827v-31c0-.685.356-1.342.99-1.827s1.493-.757 2.39-.757h3.378c.896 0 1.755.272 2.39.757s.99 1.142.99 1.827v31z" fill="#fff"/></g><defs><clipPath id="A"><path fill="#fff" d="M0 0h34v36H0z"/></clipPath></defs></svg>