<svg xmlns="http://www.w3.org/2000/svg" width="19" height="15" fill="#000"><path d="M2.257 4.162C1.2 5.08.633 6.3.633 7.6a4.28 4.28 0 0 0 .294 1.567l2.74-1.388-.007-.18c0-1.22 1.13-2.2 2.52-2.2h6.14v1.737l6.05-3.063L12.318 1v1.737H6.18c-.73-.001-1.452.124-2.126.37a5.59 5.59 0 0 0-1.795 1.056zm12.9 8.73c.632-.245 1.205-.604 1.685-1.056.982-.92 1.524-2.142 1.524-3.442a4.63 4.63 0 0 0-.27-1.56l-2.574 1.4.007.168c0 1.22-1.06 2.214-2.366 2.214H7.418v-1.74l-5.676 3.066L7.418 15v-1.74h5.745a5.5 5.5 0 0 0 1.995-.369z"/></svg>