<svg xmlns="http://www.w3.org/2000/svg" width="20" height="15" fill="none"><g clip-path="url(#A)"><path d="M.001 7.25c0-1.592.614-3.086 1.73-4.21a5.84 5.84 0 0 1 4.177-1.745h6.54V-.834l6.443 3.75-6.443 3.75V4.54h-6.54c-1.48 0-2.684 1.214-2.684 2.707l.008.218-2.918 1.7a5.97 5.97 0 0 1-.313-1.918zm18.27 4.71c-.546.554-1.197.994-1.915 1.294s-1.488.454-2.266.452H7.56v2.13l-6.45-3.754 6.45-3.754v2.13h6.527c1.482 0 2.688-1.217 2.688-2.71l-.008-.206 2.925-1.703c.203.608.308 1.25.308 1.9 0 1.593-.615 3.09-1.73 4.215z" fill="#fff" fill-opacity="1" stroke="#242424"/></g><defs><clipPath id="A"><path fill="#fff" d="M0 0h20v15H0z"/></clipPath></defs></svg>