<svg xmlns="http://www.w3.org/2000/svg" width="17" height="15" fill="none"><path d="M12.83 4.64h.782v2.477L17 3.633 13.6.15v2.066h-.782c-3.14 0-4.9 2.37-6.472 4.458-1.404 1.88-2.618 3.504-4.578 3.504H0V12.6h1.78c3.14 0 4.9-2.368 6.472-4.46C9.655 6.262 10.87 4.64 12.83 4.64h0zM4.6 6.166l.405-.54 1.064-1.38C4.944 3.177 3.6 2.4 1.78 2.4H0v2.422h1.78c1.128 0 2.008.54 2.82 1.353zM13.6 10.35h-.782c-1.196 0-2.114-.607-2.967-1.504l-.258.344-1.223 1.573c1.153 1.146 2.55 2.01 4.447 2.01h.782v2.075L17 11.367l-3.4-3.483v2.467z" fill="#000" fill-opacity="1"/></svg>